<mxfile host="app.diagrams.net" modified="2023-12-19T04:39:11.577Z" agent="Mozilla/5.0 (Windows NT 10.0; Win64; x64) AppleWebKit/537.36 (KHTML, like Gecko) Chrome/119.0.0.0 Safari/537.36 Edg/119.0.0.0" version="22.1.11" etag="RYe5UlNv2nw9bSRS72cp" type="github">
  <diagram name="ページ1" id="31G4_c6_gN0fL16lvXHV">
    <mxGraphModel>
      <root>
        <mxCell id="0" />
        <mxCell id="1" parent="0" />
      </root>
    </mxGraphModel>
  </diagram>
</mxfile>
